<svg xmlns="http://www.w3.org/2000/svg" width="53.139999mm" height="25.58mm" viewBox="0 0 53.139999 25.579998">
  <g fill="#ed1d85">
    <path d="M 17.327477,2.960088 H 11.226845 V 0.64988004 C 11.226845,0.290921 10.935925,0 10.576965,0 H 7.400391 C 7.041585,0 6.750511,0.290921 6.750511,0.64988004 V 2.960088 H 0.64988 C 0.290921,2.960088 0,3.251008 0,3.609776 v 2.454787 c 0,0.35896 0.290921,0.649842 0.64988,0.649842 h 16.677597 c 0.358768,0 0.649879,-0.290882 0.649879,-0.649842 V 3.609776 c 0,-0.358768 -0.291111,-0.649688 -0.649879,-0.649688 z" id="path58"></path>
    <path d="m 9.0428,7.797253 c -4.90429,0 -8.880339,3.97605 -8.880339,8.88054 0,4.90448 3.976049,8.88034 8.880339,8.88034 4.904673,0 8.880531,-3.97586 8.880531,-8.88034 0,-4.90449 -3.975858,-8.88054 -8.880531,-8.88054 m 0,13.64553 c -2.631606,0 -4.764994,-2.13335 -4.764994,-4.76499 0,-2.63161 2.133388,-4.7652 4.764994,-4.7652 2.631797,0 4.765187,2.13359 4.765187,4.7652 0,2.63164 -2.13339,4.76499 -4.765187,4.76499 z" id="path60"></path>
    <path d="m 52.469811,2.526732 h -3.24894 c -0.35877,0 -0.64969,0.291112 -0.64969,0.649881 v 6.7144097 h -3.50172 V 3.176613 c 0,-0.358769 -0.29073,-0.649881 -0.64969,-0.649881 h -3.24894 c -0.35897,0 -0.64969,0.291112 -0.64969,0.649881 v 21.22629 c 0,0.35896 0.29072,0.6497 0.64969,0.6497 h 3.24894 c 0.35896,0 0.64969,-0.29074 0.64969,-0.6497 v -10.6852 h 3.50172 v 10.6852 c 0,0.35896 0.29092,0.6497 0.64969,0.6497 h 3.24894 c 0.35896,0 0.64988,-0.29074 0.64988,-0.6497 V 3.176613 c 0,-0.358769 -0.29092,-0.649881 -0.64988,-0.649881 z" id="path62"></path>
    <path d="m 22.688135,2.024763 c -0.674922,0 -1.224025,0.549256 -1.224025,1.224177 v 2.815623 c 0,0.675074 0.549103,1.224178 1.224025,1.224178 H 35.68378 c 0.675111,0 1.224211,-0.549104 1.224211,-1.224178 V 3.24894 c 0,-0.674921 -0.5491,-1.224177 -1.224211,-1.224177 H 22.688135 m -0.07536,4.0398 V 3.24894 c 0,-0.04166 0.03385,-0.07551 0.07536,-0.07551 H 35.68378 c 0.0417,0 0.07554,0.03385 0.07554,0.07551 v 2.815623 c 0,0.04166 -0.03385,0.07551 -0.07554,0.07551 H 22.688135 c -0.04151,0 -0.07536,-0.03385 -0.07536,-0.07551 z" id="path64"></path>
    <path d="m 21.927408,9.9747927 c -0.451122,0.4427003 -0.679975,1.0460203 -0.679975,1.7934603 0,0 0,7.98518 0,8.0523 -0.01439,0.0895 -0.04358,0.29463 -0.04358,0.63192 0,0.71999 0.149748,1.87555 0.948266,2.91805 0.959293,1.25244 2.557593,1.97464 4.750789,2.14648 l 0.02244,0.001 h 8.758427 c 0.675106,0 1.224216,-0.54911 1.224216,-1.22421 v -2.8154 c 0,-0.67512 -0.54911,-1.22422 -1.224216,-1.22422 h -6.930894 c -1.754978,0 -1.965874,-0.97292 -1.988695,-1.1294 0,-0.0846 0,-3.96392 0,-3.96392 0,-0.28977 0.05889,-0.4958 0.16583,-0.57993 0.12153,-0.0953 0.357084,-0.0784 0.452079,-0.0551 l 0.06712,0.0163 0.07627,0.002 h 8.158285 c 0.675111,0 1.224211,-0.54911 1.224211,-1.22418 v -2.81561 c 0,-0.6749303 -0.5491,-1.22419 -1.224211,-1.22419 H 23.699003 c -0.09702,-0.002 -1.063976,0 -1.771595,0.6941797 M 23.07271,22.683003 c -0.610405,-0.78991 -0.718839,-1.69479 -0.718839,-2.23773 0,-0.29463 0.03193,-0.48272 0.03289,-0.48796 l 0.009,-0.05 3.83e-4,-8.13946 c 0,-0.42998 0.108048,-0.74671 0.330166,-0.96806 0.368686,-0.36738 0.95535,-0.3709 0.965842,-0.3709 1.92e-4,0 11.991669,0 11.991669,0 0.0417,0 0.07554,0.0339 0.07554,0.0755 v 2.81562 c 0,0.0417 -0.03385,0.0755 -0.07554,0.0755 0,0 -8.001414,0 -8.105561,0 -0.22269,-0.0453 -0.828805,-0.12264 -1.344061,0.27185 -0.282305,0.2161 -0.618636,0.6508 -0.618636,1.49377 v 4.03195 l 0.0023,0.0249 c 0.06563,0.75586 0.80541,2.18515 3.135106,2.18515 h 6.930891 c 0.0417,0 0.07554,0.0339 0.07554,0.0755 v 2.81539 c 0,0.0417 -0.03385,0.0755 -0.07554,0.0755 0,0 -8.638008,0 -8.70329,0 -1.84021,-0.14641 -3.155477,-0.71324 -3.90778,-1.68655 z" id="path66"></path>
  </g>
</svg>