
<svg xmlns="http://www.w3.org/2000/svg" width="265.64001mm" height="86.529999mm" viewBox="0 0 265.64002 86.529999" version="1.1" id="svg708">
  <defs id="defs702"></defs>
  
  
  <g id="layer1">
    <path d="m 138.77099,59.830244 -1.54247,2.33356 c -3.12559,-0.29205 -10.54498,-2.62655 -14.96353,-7.5035 -4.41855,4.87695 -11.71223,7.21145 -14.96353,7.5035 l -1.54247,-2.33356 c 3.12654,-0.45934 11.7954,-4.37886 13.58739,-10.37958 h 5.83627 c 1.79294,6.00072 10.46181,9.96088 13.58834,10.37958 m 1.83358,-15.506042 v 2.667196 h -36.63758 v -2.667196 h 15.58827 v -3.66905 h -8.62822 c -1.49995,0 -2.79196,-1.166305 -2.79196,-2.750366 v -6.376894 h 22.34038 v -3.709693 h -22.34038 v -2.668138 h 27.63319 v 9.08567 h -22.25721 v 2.543383 c 0,0.833618 0.293,1.125672 1.04344,1.125672 h 21.71564 v 2.750366 h -11.29542 v 3.66905 z" style="fill:#ed1b24;fill-opacity:1;fill-rule:nonzero;stroke:none;stroke-width:0.945145" id="path129"></path>
    <path d="m 174.53764,24.52439 h 5.29281 v 37.263264 h -5.29281 z m -13.17342,23.550154 c 2.08404,0 3.25224,0.0416 4.16903,-0.749492 v -8.29553 h -7.62732 v -2.750378 h 7.62732 V 24.52439 h 5.29375 v 37.264204 h -5.29375 v -11.58747 c -0.7495,0.41586 -2.08499,0.66728 -4.16903,0.66728 h -10.87767 c -2.16722,0 -3.58588,-1.6266 -3.58588,-3.543352 V 25.982743 h 15.17146 v 2.793851 h -9.83517 v 17.922771 c 0,0.833618 0.2911,1.375179 1.29107,1.375179 z" style="fill:#ed1b24;fill-opacity:1;fill-rule:nonzero;stroke:none;stroke-width:0.945145" id="path131"></path>
    <path d="m 215.70888,24.565975 h 5.29281 v 37.263259 h -5.29281 z m -8.54505,14.297201 h -5.75215 v -2.751314 h 5.75215 l -0.20888,-11.545887 h 5.29376 l 0.20887,37.264209 h -5.29375 z m -9.16979,-9.628188 v 4.876004 c 0,8.169828 3.66716,12.922007 8.253,15.421922 l -2.00087,2.00181 c -2.58497,-0.79203 -6.83529,-4.043326 -8.71235,-7.877779 -1.79293,3.792863 -5.91849,7.085749 -8.58663,8.085719 l -2.04151,-2.00088 c 4.70965,-2.666253 7.58667,-7.460964 7.58667,-15.172404 v -5.334392 h -6.08579 v -2.709733 h 18.38118 v 2.709733 z" style="fill:#ed1b24;fill-opacity:1;fill-rule:nonzero;stroke:none;stroke-width:0.945145" id="path133"></path>
    <path d="m 228.77416,26.024696 h 21.09178 v 10.712269 c 0,4.293796 -1.12471,9.087565 -2.16812,11.296369 h -4.70964 c 1.20884,-3.501764 1.49995,-8.628225 1.49995,-11.338901 v -7.918418 h -15.71397 z m 9.96371,11.630953 v 13.544865 h 9.04218 c 2.87793,0 4.79562,-0.12382 6.66984,-0.58315 V 24.523811 h 5.41946 v 13.048662 h 5.75121 v 2.707839 h -5.75121 v 21.508652 h -5.41946 v -8.41935 c -2.79101,0.70791 -4.04238,0.66633 -6.66984,0.66633 h -20.71566 v -2.83543 h 6.54513 V 37.655649 Z" style="fill:#ed1b24;fill-opacity:1;fill-rule:nonzero;stroke:none;stroke-width:0.945145" id="path137"></path>
    <path d="m 33.088196,64.993914 c -1.285132,-5.4e-4 -2.288477,1.01809 -2.306752,2.34036 -0.01769,1.30105 1.101204,2.40579 2.4052,2.37396 1.258603,-0.0301 2.310288,-1.10592 2.315594,-2.36865 0.0053,-1.32699 -1.042253,-2.34567 -2.414042,-2.34567 m 2.394589,-31.358968 c 0,-0.858915 -0.05246,-1.721366 0.0094,-2.575567 0.209865,-2.914538 0.584793,-5.794877 2.215377,-8.330359 2.193571,-3.411497 7.418391,-3.47045 9.488751,0.01769 0.89016,1.499709 1.57989,3.249963 1.84576,4.966023 1.10887,7.150761 0.28355,14.17123 -2.11929,20.971221 -0.80881,2.28906 -2.03911,4.42958 -3.07665,6.63729 -0.67381,1.4331 -0.1969,2.72058 1.19788,3.23523 1.11418,0.41089 2.13756,-0.10257 2.94107,-1.53332 4.59346,-8.18357 6.26413,-17.042715 5.92103,-26.323964 -0.12026,-3.247011 -0.70977,-6.448643 -2.28376,-9.359058 -2.01376,-3.721571 -5.09101,-5.651623 -9.41447,-5.563794 -4.21264,0.0843 -7.117744,2.116931 -8.976468,5.770712 -1.942435,3.818854 -2.361577,7.963693 -2.257233,12.150391 0.160347,6.425652 0.975049,12.777036 2.788381,18.962173 1.432509,4.88821 3.348415,9.55712 7.06999,13.21268 2.94696,2.8945 6.37555,4.55632 10.65834,3.69976 2.08392,-0.41678 3.91847,-1.3653 5.61626,-2.59679 3.17333,-2.30204 5.68818,-5.21067 7.66775,-8.57678 0.56593,-0.96208 0.23994,-2.07447 -0.63077,-2.73179 -0.88132,-0.66614 -1.98016,-0.63312 -2.80843,0.13323 -0.30949,0.28651 -0.55472,0.65141 -0.79112,1.00512 -1.88997,2.82788 -4.10711,5.33093 -6.99512,7.19024 -2.79958,1.80214 -5.53078,1.77443 -8.21777,-0.14619 -3.03656,-2.16999 -4.67009,-5.33801 -5.97586,-8.68523 -2.697009,-6.91555 -3.634918,-14.165349 -3.87308,-21.528913 m 51.05332,9.792343 c -0.0855,6.83773 -2.54374,12.79945 -7.41722,17.71949 -6.04424,6.10084 -12.08495,12.20993 -18.24473,18.19403 -6.12324,5.94816 -13.52748,8.10636 -21.93625,6.78939 -6.028922,-0.9438 -10.811026,-4.08471 -14.999493,-8.40995 C 18.609802,72.218364 13.14092,66.850884 7.7056389,61.452144 1.8671349,55.653134 -0.66009414,48.623824 0.14635586,40.492721 0.73527486,34.544561 3.3061279,29.447667 7.5665149,25.211445 13.396767,19.41362 19.158046,13.545635 25.017183,7.7766944 c 7.452582,-7.33704196 16.28226,-9.455145 26.25972,-6.469871 4.22266,1.263908 7.67659,3.847146 10.76562,6.99571 5.75834,5.8709356 11.66876,11.5938896 17.4212,17.4713046 4.7485,4.850482 7.01104,10.77506 7.07235,17.653461" style="fill:#ed1b24;fill-opacity:1;fill-rule:evenodd;stroke:none;stroke-width:0.589507" id="path211"></path>
    <path d="m 35.482486,33.634783 c 0.238161,7.363564 1.176662,14.613351 3.873667,21.529481 1.30576,3.34665 2.9393,6.51468 5.97527,8.68465 2.68758,1.92122 5.41878,1.94893 8.21836,0.14621 2.88742,-1.85873 5.10515,-4.36179 6.99453,-7.18966 0.23698,-0.3543 0.48222,-0.71921 0.79112,-1.00512 0.82826,-0.76695 1.9277,-0.79997 2.80902,-0.13382 0.87011,0.65731 1.1967,1.76971 0.63077,2.73179 -1.97957,3.36669 -4.49442,6.27474 -7.66775,8.57737 -1.69779,1.23148 -3.53293,2.17941 -5.61685,2.5962 -4.2822,0.85655 -7.71138,-0.80468 -10.65775,-3.69917 -3.721572,-3.65615 -5.638069,-8.32507 -7.070577,-13.21328 -1.812742,-6.185135 -2.628034,-12.536509 -2.787792,-18.962167 -0.104933,-4.186698 0.314209,-8.330956 2.256644,-12.150385 1.858724,-3.653784 4.763825,-5.685821 8.977055,-5.77071 4.32287,-0.08725 7.40011,1.842212 9.41388,5.564377 1.57458,2.909825 2.16409,6.112037 2.28376,9.359059 0.34369,9.281243 -1.32757,18.139806 -5.92104,26.323376 -0.8035,1.43134 -1.8263,1.9448 -2.94106,1.53332 -1.39478,-0.51464 -1.8711,-1.80155 -1.19729,-3.23523 1.03753,-2.20772 2.26784,-4.34822 3.07665,-6.63729 2.40284,-6.799994 3.22815,-13.820469 2.1187,-20.971219 -0.26587,-1.716066 -0.95501,-3.466325 -1.84517,-4.966034 -2.07095,-3.488128 -7.29518,-3.429175 -9.489337,-0.01769 -1.629995,2.536078 -2.004924,5.415837 -2.215379,8.33037 -0.06131,0.854195 -0.0094,1.716652 -0.0094,2.575572" style="fill:#ffffff;fill-opacity:1;fill-rule:evenodd;stroke:none;stroke-width:0.589507" id="path215"></path>
    <path d="m 33.088196,64.993914 c 1.371789,0 2.419348,1.01868 2.414042,2.34567 -0.0053,1.26273 -1.056991,2.33858 -2.315594,2.36865 -1.303996,0.0318 -2.422885,-1.07291 -2.4052,-2.37396 0.01828,-1.32227 1.02162,-2.34094 2.306752,-2.34036" style="fill:#ffffff;fill-opacity:1;fill-rule:evenodd;stroke:none;stroke-width:0.589507" id="path219"></path>
  </g>
</svg>