
<svg xmlns="http://www.w3.org/2000/svg" width="90.220001mm" height="19.67mm" viewBox="0 0 90.220001 19.669999" version="1.1" id="svg560">
  <defs id="defs554"></defs>
  
  
  <g id="layer1">
    <path d="m 9.8973235,19.579073 c 5.4028665,0 9.7343935,-4.391669 9.7343935,-9.7852408 -0.03668,-5.4121541 -4.41003,-9.80369443 -9.8221217,-9.7667781 -5.4121042,0 -9.76671367,4.4008311 -9.76671367,9.8221488 C 0.07560757,15.27052 4.4806125,19.620567 9.8973235,19.579073" style="fill:#ffffff;fill-opacity:1;fill-rule:nonzero;stroke:none;stroke-width:4.61783" id="path32"></path>
    <path d="m 6.9931696,14.744705 -0.2263247,0.928071 c -0.600304,0.03929 -1.0252022,0.03929 -1.0252022,0.03929 0.087702,0.104717 0.5264763,0.378299 0.8865802,0.586429 L 6.3880227,17.310342 7.2007761,16.705594 8.119688,17.237039 7.6763323,16.27231 C 8.119688,15.907105 8.5352926,15.496079 8.5352926,15.496079 8.119688,15.548424 7.7594536,15.61389 7.4039317,15.653162 Z m -3.1308854,0.688528 c -0.1801176,-0.44768 -0.3602345,-0.767074 -0.5126016,-1.03018 0,0 -0.1060281,0.35605 -0.2263239,0.845613 -0.6649679,-0.332488 -1.0204899,-0.582507 -1.0204899,-0.582507 0.2862761,0.494804 0.6233413,0.877026 0.8589603,1.12181 -0.064139,0.286668 -0.092939,0.513126 -0.092939,0.664968 l 0.660386,-0.09163 c 0,0 0.6465105,0.761833 0.9651197,0.969963 0,0 -0.1523672,-0.553703 -0.3786919,-1.140132 0.5957222,-0.221217 1.071279,-0.572031 1.071279,-0.572031 C 4.6928394,15.566764 4.2403206,15.514388 3.861669,15.438467 M 4.9376596,6.1751287 c 0,0 -0.6419292,0.4057833 -1.4361467,0.983048 C 3.1321155,6.7615573 2.7718811,6.3780169 2.4810231,6.1646528 c 0,0 0,0.7343477 0.073303,1.708627 -0.5633894,0.558937 -1.0898658,1.1676226 -1.3761166,1.7270816 0,0 0.4110235,-0.2775038 1.4869493,-0.3926971 0.06021,0.6832944 0.1477851,1.3622707 0.2724012,1.9857427 0,0 0.3925667,-0.9464 0.7897146,-2.0780229 0.4756873,-0.026172 0.9835764,-0.052345 1.5792984,-0.026172 0,0 -0.4987259,-0.5497803 -1.1036111,-1.227833 C 4.4800757,7.2238967 4.7478957,6.5864146 4.9371757,6.1804973 M 9.4718894,5.6582084 C 9.8089542,5.1542473 10.266185,4.6005447 10.575499,4.0743337 c 0,0 -0.8774169,0.1937312 -1.9949023,0.5406093 C 7.8418025,3.8020642 7.2321914,3.1187701 7.2321914,3.1187701 l 0.027491,1.9671471 c -0.6326358,0.2264572 -1.279147,0.5262182 -1.8886917,0.8220497 0,0 0.9974512,0.2722693 1.9441144,0.4620712 L 7.3700813,8.466523 8.7554269,6.7717722 10.902722,7.4131767 C 10.611864,7.0113156 10.048474,6.3699112 9.4711966,5.6583425 M 15.732978,4.7996446 c 0,0 0.637222,-0.8730962 1.219065,-1.4038928 0,0 -0.609596,-0.065466 -1.897936,0.013122 l -1.062115,-2.16114 -0.512603,2.2996339 c -0.664966,0.091632 -1.413049,0.2028952 -2.267352,0.3508074 l 2.054933,1.1309672 -0.438644,2.2950556 1.800965,-1.4824308 2.290433,1.103483 -1.186732,-2.1472704 M 0.99287036,10.080676 C 0.79429679,10.21419 0.4572309,11.618477 0.4572309,11.618477 0.07395822,11.013721 0,9.8590654 0,9.8590654 0,4.4377404 4.3730797,0.03233088 9.7805633,0 15.22036,0 19.630399,4.3915333 19.630399,9.8036937 c 0.04191,5.4536483 -4.331535,9.8267293 -9.7805646,9.8406053 -3.3156096,0 -6.3218134,-1.579297 -8.0165521,-4.123717 C 1.3160995,14.753516 1.2976428,14.324163 1.2976428,14.324163 1.0667369,13.275663 1.312041,12.864899 1.312041,12.864899 L 2.4110704,12.44864 1.1549622,11.847813 c 0,0 -0.22161226,-1.745536 -0.16166076,-1.76871" style="fill:#ed1b29;fill-opacity:1;fill-rule:nonzero;stroke:none;stroke-width:4.61783" id="path52"></path>
    <path d="M 25.671837,3.3330442 H 22.933468 L 21.954469,0.42380762 21.09551,3.3330442 l -2.863064,0.052345 2.359717,1.5884603 -0.798876,2.7152442 2.188857,-1.6624199 2.401269,1.5978851 -0.895875,-2.6645857 z" style="fill:#ed1b29;fill-opacity:1;fill-rule:nonzero;stroke:none;stroke-width:4.61783" id="path56"></path>
    <path d="m 34.185731,16.451885 c 4.257638,0 7.711781,-3.010941 7.697926,-6.719054 -0.03274,-3.7404427 -3.467991,-6.7004648 -7.73025,-6.7004648 -4.234549,0.026173 -7.642505,3.0339818 -7.633278,6.7605481 0,3.7035347 3.444901,6.6589707 7.665602,6.6589707 M 30.81472,9.732831 c 0,-2.839855 1.505407,-5.1396229 3.338687,-5.1396229 1.879453,0 3.412584,2.2997679 3.417191,5.1396229 0,2.812371 -1.482319,5.144343 -3.384867,5.144343 -1.833273,0.03929 -3.343309,-2.308932 -3.371011,-5.144343" style="fill:#ed1b29;fill-opacity:1;fill-rule:nonzero;stroke:none;stroke-width:4.61783" id="path60"></path>
    <path d="m 69.735195,16.325306 c 4.253026,0 7.679458,-3.033982 7.660989,-6.7327962 0,-3.7267008 -3.435674,-6.6867229 -7.702554,-6.6867229 -4.239169,0.026173 -7.624037,3.0339818 -7.624037,6.7236393 0,3.7543198 3.417199,6.7235048 7.665602,6.6958798 M 66.359563,9.6247136 c -0.01834,-2.8630294 1.49618,-5.1442086 3.334067,-5.181125 1.870226,0 3.417205,2.3180956 3.417205,5.158085 0.0092,2.8399894 -1.505421,5.1580784 -3.37564,5.1858304 -1.856363,0 -3.375632,-2.322808 -3.375632,-5.1627904" style="fill:#ed1b29;fill-opacity:1;fill-rule:nonzero;stroke:none;stroke-width:4.61783" id="path64"></path>
    <path d="M 60.986243,15.924101 60.916897,5.0075062 c 0,-1.1780916 -0.909751,-2.0734448 -2.064174,-2.0734448 -1.14524,0 -2.101114,0.9280792 -2.101114,2.0734448 l 0.04578,10.9165948 z" style="fill:#ed1b29;fill-opacity:1;fill-rule:nonzero;stroke:none;stroke-width:4.61783" id="path68"></path>
    <path d="m 47.881299,10.190063 c 0,0 -0.526471,-0.6230765 0.230909,-0.6832939 h 0.720339 c 0,0 2.567521,-0.052345 2.507487,-2.3319648 0,0 0.04191,-2.2811793 -2.923091,-2.3458482 h -0.863544 c 0,0 -0.378694,-0.039293 -0.378694,0.3141591 l 0.03669,10.9303438 H 43.189252 V 5.3786023 c -0.02356,-1.1780915 0.798875,-1.9348162 1.884066,-2.1149394 l 4.760985,-0.00931 c 0,0 5.527544,-0.052345 5.444429,3.6666174 0,0 0.452519,3.1354257 -3.518784,3.5188317 l 3.555721,5.578267 h -4.38232 l -3.052387,-5.749218" style="fill:#ed1b29;fill-opacity:1;fill-rule:nonzero;stroke:none;stroke-width:4.61783" id="path72"></path>
    <path d="m 78.664227,6.2214628 0.03274,9.6327422 h 2.179615 l -0.05496,-9.4988331 7.148398,9.4664951 2.216574,-0.01312 -0.0092,-11.7940152 c 0,-0.5681008 -0.466396,-1.0341015 -1.071279,-1.0341015 -0.572686,0 -1.048245,0.4751645 -1.048245,1.0341015 L 88.07621,9.510009 83.929405,4.0886915 c 0,0 -0.669552,-1.3345186 -3.01545,-1.0210154 0,0 -2.216553,0.2722693 -2.248884,3.1585998" style="fill:#ed1b29;fill-opacity:1;fill-rule:nonzero;stroke:none;stroke-width:4.61783" id="path76"></path>
  </g>
</svg>